<?xml version="1.0" standalone="no"?>
<!DOCTYPE svg PUBLIC "-//W3C//DTD SVG 1.1//EN" "http://www.w3.org/Graphics/SVG/1.1/DTD/svg11.dtd" >
<svg>
<metadata>
Created by FontForge 20080720 at Tue Jan 27 13:54:31 2015
 By ,S-1-5-21-169809705-2805521531-935871915-1001
Created by ,S-1-5-21-169809705-2805521531-935871915-1001 with FontForge 2.0 (http://fontforge.sf.net)
</metadata>
<defs>
<font id="Untitled1" horiz-adv-x="1000" >
  <font-face 
    font-family="Untitled1"
    font-weight="500"
    font-stretch="normal"
    units-per-em="1000"
    panose-1="2 0 6 9 0 0 0 0 0 0"
    ascent="800"
    descent="-200"
    bbox="33 -125 907 730"
    underline-thickness="50"
    underline-position="-100"
    unicode-range="U+003C-U+0155"
  />
<missing-glyph 
d="M33 0v666h265v-666h-265zM66 33h199v600h-199v-600z" />
    <glyph glyph-name=".notdef" 
d="M33 0v666h265v-666h-265zM66 33h199v600h-199v-600z" />
    <glyph glyph-name=".null" horiz-adv-x="0" 
 />
    <glyph glyph-name="nonmarkingreturn" 
 />
    <glyph glyph-name="cent" unicode="&#xa2;" 
d="M500 -102q-109 0 -202 53.5t-146.5 146.5t-53.5 202t53.5 202t146.5 146.5t202 53.5t202 -53.5t146.5 -146.5t53.5 -202t-53.5 -202t-146.5 -146.5t-202 -53.5zM500 652q-96 0 -177 -47t-128 -128t-47 -177t47 -177t128 -128t177 -47t177 47t128 128t47 177t-47 177
t-128 128t-177 47zM676 275h-266l103 -104q8 -7 8 -17.5t-7.5 -18t-18 -7.5t-17.5 8l-142 142q-9 9 -7 22q-2 13 7 22l142 142q7 8 17.5 8t18 -7.5t7.5 -18t-8 -17.5l-103 -104h266q10 0 17.5 -7.5t7.5 -17.5t-7.5 -17.5t-17.5 -7.5z" />
    <glyph glyph-name="sterling" unicode="&#xa3;" 
d="M805 198h-18q-5 -15 -12 -29l12 -13q30 -29 30 -71.5t-29.5 -72t-72 -29.5t-71.5 30l-13 12q-14 -7 -29 -12v-18q0 -42 -30 -71.5t-72 -29.5t-72 29.5t-30 71.5v18q-15 5 -29 12l-13 -12q-29 -30 -71.5 -30t-72 29.5t-29.5 72t30 71.5l12 13q-7 14 -12 29h-18
q-42 0 -71.5 30t-29.5 72t29.5 72t71.5 30h18q5 15 12 29l-12 13q-30 29 -30 71.5t29.5 72t72 29.5t71.5 -30l13 -12q14 7 29 12v18q0 42 30 71.5t72 29.5t72 -29.5t30 -71.5v-18q15 -5 29 -12l13 12q29 30 71.5 30t72 -29.5t29.5 -72t-30 -71.5l-12 -13q7 -14 12 -29h18
q42 0 71.5 -30t29.5 -72t-29.5 -72t-71.5 -30zM751 120l-39 40l10 16q14 26 22 55l5 18h56q21 0 35.5 15t14.5 36t-14.5 36t-35.5 15h-56l-5 18q-8 29 -22 55l-10 16l39 40q15 14 15 35.5t-15 35.5q-14 15 -35.5 15t-35.5 -15l-40 -39l-16 10q-26 14 -55 22l-18 5v56
q0 21 -15 35.5t-36 14.5t-36 -14.5t-15 -35.5v-56l-18 -5q-29 -8 -55 -22l-16 -10l-40 39q-14 15 -35.5 15t-35.5 -15q-15 -14 -15 -35.5t15 -35.5l39 -40l-10 -16q-14 -26 -22 -55l-5 -18h-56q-21 0 -35.5 -15t-14.5 -36t14.5 -36t35.5 -15h56l5 -18q8 -29 22 -55l10 -16
l-39 -40q-15 -14 -15 -35.5t15 -35.5q14 -15 35.5 -15t35.5 15l40 39l16 -10q26 -14 55 -22l18 -5v-56q0 -21 15 -35.5t36 -14.5t36 14.5t15 35.5v56l18 5q29 8 55 22l16 10l40 -39q14 -15 35.5 -15t35.5 15q15 14 15 35.5t-15 35.5zM500 452q63 0 107.5 -44.5t44.5 -107.5
t-44.5 -107.5t-107.5 -44.5t-107.5 44.5t-44.5 107.5t44.5 107.5t107.5 44.5zM500 198q42 0 72 30t30 72t-30 72t-72 30t-72 -30t-30 -72t30 -72t72 -30z" />
    <glyph glyph-name="currency" unicode="&#xa4;" 
d="M826 -52q11 0 18.5 -7t7.5 -17.5t-7.5 -18t-18.5 -7.5h-254v254q0 10 7.5 17.5t18 7.5t18 -7.5t7.5 -17.5v-183q99 40 163.5 130.5t64.5 200.5q0 97 -46 179.5t-128 131t-181 48.5q-10 0 -17.5 7.5t-7.5 18t7.5 18t17.5 7.5q112 0 205.5 -55.5t147 -149.5t53.5 -205
q0 -109 -57.5 -203t-150.5 -149h132zM496 -52q11 0 18 -7t7 -17.5t-7 -18t-18 -7.5q-112 0 -205.5 55.5t-147 149.5t-53.5 205q0 108 56 202t146 149h-126q-11 0 -18 7.5t-7 18t7 18t18 7.5h254v-254q0 -10 -7.5 -17.5t-18 -7.5t-18 7.5t-7.5 17.5v182
q-99 -39 -163.5 -129.5t-64.5 -200.5q0 -97 46 -179.5t128 -131t181 -49.5z" />
    <glyph glyph-name="copyright" unicode="&#xa9;" 
d="M665 318q7 -8 7 -18t-7 -18l-293 -280q-8 -7 -18.5 -7t-18 7.5t-7.5 17.5t7 17l275 263l-275 263q-7 7 -7 17t7.5 17.5t18 7.5t18.5 -7z" />
    <glyph glyph-name="ordfeminine" unicode="&#xaa;" 
d="M335 318l293 280q8 7 18.5 7t18 -7.5t7.5 -17.5t-7 -17l-275 -263l275 -263q7 -7 7 -17t-7.5 -17.5t-18 -7.5t-18.5 7l-293 280q-7 8 -7 18t7 18z" />
    <glyph glyph-name="guillemotleft" unicode="&#xab;" 
d="M482 135l-287 293q-7 8 -7 18.5t7.5 18t18 7.5t17.5 -7l269 -275l269 275q7 7 17.5 7t18 -7.5t7.5 -18t-7 -18.5l-287 -293q-8 -7 -18.5 -7t-17.5 7z" />
    <glyph glyph-name="logicalnot" unicode="&#xac;" 
d="M482 465q7 7 17.5 7t18.5 -7l287 -293q7 -8 7 -18.5t-7.5 -18t-18 -7.5t-17.5 7l-269 275l-269 -275q-7 -7 -17.5 -7t-18 7.5t-7.5 18t7 18.5z" />
    <glyph glyph-name="Eacute" unicode="&#xc9;" 
d="M515.5 730q59.5 0 101.5 -51.5t42 -123.5h115l58 -638h-633l58 638h115q0 72 42 123.5t101.5 51.5zM519 327l-44 -95l-103 -13l76 -72l-20 -103l91 51l91 -51l-19 103l76 72l-104 13zM650 492q-9 -28 -26 -51q5 -2 10 -2q12 0 20.5 8.5t8.5 20.5q0 16 -13 24zM408 440
q-17 22 -26 50q-10 -9 -10 -22q0 -12 8.5 -20.5t20.5 -8.5q3 0 7 1zM386 555h265q-1 67 -39.5 114t-93 47t-93 -47t-39.5 -114zM401 497q-3 0 -6 -1q8 -28 24 -50q10 8 10 22q0 12 -8.5 20.5t-19.5 8.5zM634 497q-12 0 -20 -8.5t-8 -20.5q0 -15 11 -23q16 22 25 51
q-4 1 -8 1z" />
    <glyph glyph-name="aacute" unicode="&#xe1;" 
d="M500 -106q-110 0 -203.5 54.5t-148 148t-54.5 203.5t54.5 203.5t148 148t203.5 54.5t203.5 -54.5t148 -148t54.5 -203.5t-54.5 -203.5t-148 -148t-203.5 -54.5zM500 655q-96 0 -178 -47.5t-129.5 -129.5t-47.5 -178t47.5 -178t129.5 -129.5t178 -47.5t178 47.5
t129.5 129.5t47.5 178t-47.5 178t-129.5 129.5t-178 47.5zM472 155q-7 -7 -17.5 -7t-18.5 7l-132 132q-7 7 -7 17.5t7.5 18t18 7.5t17.5 -7l114 -114l206 210q7 8 17.5 8t18 -7.5t7.5 -18t-7 -17.5z" />
    <glyph glyph-name="acircumflex" unicode="&#xe2;" 
d="M787 587.5q78 -77.5 106 -182.5t0 -209.5t-106 -182.5t-182.5 -106t-209 0t-182.5 106t-106 182.5t0 209t106 182.5t182.5 106t209 0t182.5 -105.5zM752 48q51 52 77.5 118.5t26.5 133.5t-26.5 133.5t-77.5 118.5q-69 68 -160.5 92t-183 0t-160.5 -92
q-51 -52 -77.5 -118.5t-26.5 -133.5t26.5 -133.5t77.5 -118.5q69 -68 160.5 -92t183 0t160.5 92zM608 444l36 -36l-108 -108l108 -108l-36 -36l-108 108l-108 -108l-36 36l108 108l-108 108l36 36l108 -108z" />
    <glyph glyph-name="atilde" unicode="&#xe3;" 
d="M500 706q110 0 203.5 -54.5t148 -148t54.5 -203.5t-54.5 -203.5t-148 -148t-203.5 -54.5t-203.5 54.5t-148 148t-54.5 203.5t54.5 203.5t148 148t203.5 54.5zM500 -55q96 0 178 47.5t129.5 129.5t47.5 178t-47.5 178t-129.5 129.5t-178 47.5t-178 -47.5t-129.5 -129.5
t-47.5 -178t47.5 -178t129.5 -129.5t178 -47.5zM525 478v-153h153v-50h-153v-153h-50v153h-153v50h153v153h50z" />
    <glyph glyph-name="adieresis" unicode="&#xe4;" 
d="M500 -106q-110 0 -203.5 54.5t-148 148t-54.5 203.5t54.5 203.5t148 148t203.5 54.5t203.5 -54.5t148 -148t54.5 -203.5t-54.5 -203.5t-148 -148t-203.5 -54.5zM500 655q-96 0 -178 -47.5t-129.5 -129.5t-47.5 -178t47.5 -178t129.5 -129.5t178 -47.5t178 47.5
t129.5 129.5t47.5 178t-47.5 178t-129.5 129.5t-178 47.5zM322 325h356v-50h-356v50z" />
    <glyph glyph-name="aring" unicode="&#xe5;" 
d="M763 425l-300 -282l-6 -7q-7 -6 -16 -5.5t-15 7.5l-6 6l-184 198q-7 6 -6.5 15.5t7.5 15.5l6 6q7 6 16 6t15 -7l169 -181l284 267q7 6 16 5.5t15 -7.5l6 -6q7 -7 6.5 -16t-7.5 -15z" />
    <glyph glyph-name="ae" unicode="&#xe6;" 
d="M696 143q8 -8 8 -19.5t-8 -19.5t-19.5 -8t-19.5 8l-157 157l-157 -157q-8 -8 -19.5 -8t-19.5 8t-8 19.5t8 19.5l157 157l-157 157q-8 8 -8 19.5t8 19.5t19.5 8t19.5 -8l157 -157l157 157q8 8 19.5 8t19.5 -8t8 -19.5t-8 -19.5l-157 -157z" />
    <glyph glyph-name="ccedilla" unicode="&#xe7;" 
d="M761 328q11 0 19.5 -8t8.5 -20t-8.5 -20t-19.5 -8h-233v-233q0 -11 -8 -19.5t-20 -8.5t-20 8.5t-8 19.5v233h-233q-11 0 -19.5 8t-8.5 20t8.5 20.5t19.5 7.5h233v233q0 11 8 19.5t20 8.5t20 -8.5t8 -19.5v-232h233v-1z" />
    <glyph glyph-name="egrave" unicode="&#xe8;" 
d="M472 272h-233q-11 0 -19.5 8t-8.5 20t8.5 20.5t19.5 7.5h233h57h232q11 0 19.5 -8t8.5 -20t-8.5 -20t-19.5 -8h-233h-56z" />
    <glyph glyph-name="eacute" unicode="&#xe9;" 
d="M787.5 587.5q58.5 -58.5 89 -134.5t30.5 -153t-30.5 -153t-89.5 -134q-78 -78 -182.5 -106t-209 0t-182.5 106t-106 182.5t0 209t106 182.5q58 59 134 89.5t153 30.5t153 -30.5t134.5 -89zM751.5 48.5q68.5 68.5 92.5 160t0 183t-92.5 160t-160 92.5t-183 0t-160 -92.5
t-92.5 -160t0 -183t92.5 -160t160 -92.5t183 0t160 92.5zM475 122v50h50v-50h-50zM500 478q42 0 72 -29.5t30 -71.5v-1q0 -27 -11 -53q-10 -26 -30 -45l-20 -20q-7 -7 -11 -16.5t-4 -17.5h-51q0 18 8 37t22 33l20 20q13 12 19 29q7 16 7 33q0 21 -15 36t-36 15t-36 -15
t-15 -36v-35h-51v35q0 42 30 72t72 30z" />
    <glyph glyph-name="ecircumflex" unicode="&#xea;" 
d="M500 706q110 0 203.5 -54.5t148 -148t54.5 -203.5t-54.5 -203.5t-148 -148t-203.5 -54.5t-203.5 54.5t-148 148t-54.5 203.5t54.5 203.5t148 148t203.5 54.5zM500 -55q96 0 178 47.5t129.5 129.5t47.5 178t-47.5 178t-129.5 129.5t-178 47.5t-178 -47.5t-129.5 -129.5
t-47.5 -178t47.5 -178t129.5 -129.5t178 -47.5zM501 205q-22 0 -23 20l-9 208q-2 29 32 29q33 0 31 -29l-10 -208q0 -20 -21 -20zM501 171q33 0 33 -35q0 -34 -33 -34q-34 0 -34 34q0 35 34 35z" />
    <glyph glyph-name="edieresis" unicode="&#xeb;" 
d="M500 -106q-110 0 -203.5 54.5t-148 148t-54.5 203.5t54.5 203.5t148 148t203.5 54.5t203.5 -54.5t148 -148t54.5 -203.5t-54.5 -203.5t-148 -148t-203.5 -54.5zM500 655q-96 0 -178 -47.5t-129.5 -129.5t-47.5 -178t47.5 -178t129.5 -129.5t178 -47.5t178 47.5
t129.5 129.5t47.5 178t-47.5 178t-129.5 129.5t-178 47.5z" />
    <glyph glyph-name="ntilde" unicode="&#xf1;" 
d="M797 3q-8 -8 -19 -8t-19 8l-161 161q-68 -55 -155 -55q-103 0 -175.5 73t-72.5 175.5t72.5 175t175 72.5t175 -72.5t72.5 -175.5q0 -87 -54 -154l161 -161q8 -8 8 -19.5t-8 -19.5zM652 357q0 87 -61 148.5t-148 61.5t-148.5 -61.5t-61.5 -148.5t61.5 -148t148.5 -61
t148 61t61 148zM443 490q-55 0 -94.5 -39t-39.5 -94h-19q0 63 45 107.5t108 44.5v-19z" />
    <glyph glyph-name="otilde" unicode="&#xf5;" 
d="M893 423q-10 -11 -25 -11q-13 0 -23 9q-70 68 -159.5 104.5t-185.5 36.5t-185.5 -36.5t-159.5 -104.5q-10 -9 -24 -9t-24 11t-9.5 25.5t10.5 23.5q81 78 182 119t210 41t210 -41t182 -119q10 -9 10.5 -23.5t-9.5 -25.5zM500 457q80 0 153.5 -31t130.5 -88
q10 -11 10 -25.5t-10 -24.5t-24 -10t-23 10q-99 99 -237 99t-237 -99q-9 -10 -23 -10t-24 10t-10 24.5t10 25.5q57 57 130.5 88t153.5 31zM500 283q50 0 96 -22t80 -61q10 -11 9 -25t-12 -24q-9 -9 -22 -9q-15 0 -25 12q-51 59 -126 59t-126 -59q-10 -12 -25 -12
q-13 0 -22 9q-11 10 -12 24t9 25q34 39 80 61t96 22zM500 108q28 0 48 -20.5t20 -49.5t-20 -49.5t-48 -20.5t-48 20.5t-20 49.5t20 49.5t48 20.5z" />
    <glyph glyph-name="udieresis" unicode="&#xfc;" 
d="M473.5 688q89.5 0 165.5 -43.5t120.5 -118.5t44.5 -164q0 -36 -18 -81.5t-46 -86.5t-44 -62l-28 -36q-28 -31 -41 -52q-31 -48 -106 -144q-19 -25 -48 -25t-48 25l-148 205q-47 54 -88 128t-41 129q0 89 43 164t118 118.5t164.5 43.5zM628 129q50 58 87.5 124t37.5 109
q0 114 -82 194.5t-197.5 80.5t-197.5 -80.5t-82 -194.5q0 -44 39 -113t83 -120q48 -57 149 -199q3 -4 7.5 -4t8.5 5q74 95 102 140q16 24 45 58zM473.5 538q63.5 0 108.5 -44t45 -107t-45 -107t-108.5 -44t-108.5 44t-45 107t45 107t108.5 44zM473.5 286q42.5 0 72.5 29.5
t30 71.5t-30 71.5t-72.5 29.5t-72.5 -29.5t-30 -71.5t30 -71.5t72.5 -29.5z" />
    <glyph glyph-name="napostrophe" unicode="&#x149;" 
d="M544.031 514.07q-10.786 0 -18.432 7.64502q-7.646 7.64398 -7.646 18.426q0 16.679 15.32 23.664v45.273q0 4.45203 3.15497 7.60498q3.15503 3.15302 7.60303 3.15302q4.44897 0 7.60297 -3.15302q3.15503 -3.15295 3.15503 -7.60498v-45.273
q8.87598 -4.06702 12.899 -12.899h45.281q4.44702 0 7.59802 -3.15601q3.15198 -3.15601 3.15198 -7.60901t-3.151 -7.60602q-3.151 -3.15198 -7.599 -3.15198h-45.281q-6.95599 -15.313 -23.657 -15.313zM544.031 544.711q-4.56201 0 -4.56201 -4.57001
q0 -4.547 4.56201 -4.547q4.56299 0 4.56299 4.547q0 4.57001 -4.56299 4.57001zM248.086 300.172q0 17.824 13.138 30.463q13.139 12.638 31.667 12.638q18.527 0 31.661 -12.638q13.136 -12.638 13.136 -30.463q0 -17.82 -13.136 -30.457q-13.135 -12.637 -31.661 -12.637
q-18.527 0 -31.666 12.638q-13.139 12.637 -13.139 30.456zM304.711 300.172q0 10.109 -11.82 10.109q-11.821 0 -11.821 -10.109q0 -10.11 11.821 -10.11q11.82 0 11.82 10.11zM884.492 282.828l0.210999 -5.836q0.460022 -14.18 -9.19598 -27.091
q-9.65601 -12.91 -18.334 -18.792q-8.67896 -5.88199 -23.743 -14.367q-15.625 -8.80501 -15.789 -11.008q-3.92102 -56.424 -28.314 -96.507q-24.394 -40.0833 -74.522 -72.4536q-1.12201 -4.7664 -0.687988 -23.9453q1.06702 -47.3012 -14.258 -61.3047
q-11.197 -12.2187 -43.101 -12.2187q-9.55902 0 -27.524 1.2656q-9.68701 0.7257 -12.773 0.75l-2.758 -1.2578l-5.44501 1.2031q-9.81799 2.2097 -14.875 10.3672q-5.76501 9.3175 -2.453 25.0391q-29.666 -6.7266 -79.203 -6.7266q-12.749 0 -25.657 0.7656
q-3.62201 -26.3991 -20.75 -31.6562l-3.992 -0.6875q-22.54 -0.828098 -33.695 -0.828098q-14.329 0 -21.508 1.1718q-13.586 0.545902 -21.93 9.1485q-6.30402 6.5486 -8.711 17.0468q-13.43 -5.8671 -39.179 -5.8671q-52.711 0 -63.25 21.4375l-0.968994 2.4843
q-8.23099 28.1117 4.71899 62.0782l-10.321 6.7109q-31.694 20.4056 -45.429 37.8516q-12.672 13.8514 -38.563 14.6174q-33.805 0.962997 -52.515 17.773l-2.11001 2.313q-15.188 26.629 -11.913 67.59q3.276 40.96 13.405 54.183q10.522 13.664 31.18 13.789
q4.828 0.0239868 6.10201 3.31299q3.56799 43.023 22.412 74.811q18.844 31.789 55.197 65.814q-12.839 21.781 -8.914 46.515q4.707 29.596 28.844 42.125q15.712 6.89099 31.664 6.89099q35.361 0 68.218 -28.992q26.938 4.96402 54.876 8.77301l1.27301 0.171997
l0.664001 -1.10101q8.853 -14.559 20.273 -26.368l2.74298 -2.828l-3.914 -0.468994q-41.792 -5.01001 -77.93 -12.148l-9.125 -1.797l-6.27399 6.828q-23.267 24.93 -50.812 24.93q-9.04999 0 -17.5 -3.672q-8.34 -4.40701 -10.43 -17.539q-2.93402 -18.327 10.282 -31.805
l12.007 -12.242l-12.711 -11.523q-39.467 -35.768 -57.417 -64.116q-17.951 -28.347 -20.723 -67.087l-0.937988 -4.35999q-10.1 -26.948 -37.664 -27.117q-4.578 -0.0310059 -5.25 -0.906006q-4.56801 -8.87599 -6.88501 -36.459q-2.31599 -27.583 4.776 -44.182
q9.172 -7.534 30 -8.14q39.938 -1.157 62.797 -26.297q11.058 -13.9754 38.023 -31.3363q13.154 -8.4683 19.789 -13.2188l1.953 -1.6328q9.909 -9.8773 1.789 -31.0781q-8.285 -21.7141 -5.117 -37.0781q11.338 -4.53126 33.664 -4.53126q12.498 0 21.11 1.74219
q-0.115997 1.40037 -0.335999 4.57813q-1.73898 23.3988 14.648 27.7579l5.03101 1.3281l4.883 -1.7891q6.41599 -2.3386 12.156 -4.2266l2.93799 -1.0781l1.96899 -1.5078q9.16901 -7.053 8.375 -29.7812q-0.529999 -13.9819 0.695007 -17.7422l2.922 0.0547009
q4.86002 -0.836 16.937 -0.836q8.944 0 25.063 0.5235q0.700989 3.3396 1.35901 10.0781q2.31598 23.6719 18.492 23.6719l1.547 -0.0703101q18.533 -1.79687 37.625 -1.79687q52.943 0 86.75 9.76562l1.922 0.4375q2.72498 0.4297 5.172 0.4297q10.48 0 16.797 -8.04689
q7.28497 -9.27875 2.09399 -30.2734l-0.296997 -1.25q2.84601 -0.180901 5.93701 -0.3985l1.078 -0.0702991q16.909 -1.2265 25.586 -1.2265q16.735 0 19.704 2.375l0.976013 1.0625q4.409 3.7242 3.703 36.3281q-0.330017 14.7952 0.059021 22.3329
q0.388977 7.5377 4.052 16.6727q3.66199 9.1351 11.35 13.2131q49.01 31.5461 68.224 68.9086q19.214 37.363 19.214 101.162q0 68.18 -38.491 119.812q-38.4901 51.631 -108.603 77.5l-3.414 1.258l2.93701 2.14099q12.426 9.11002 22.797 20.601l0.937988 1.047
l1.28101 -0.554993q69.883 -30.052 111.671 -84.087q41.788 -54.034 48.016 -122.397q0.151978 -1.461 6.28998 -1.461q11.679 0 27.507 7.561q15.828 7.56 26.188 22.291zM549.992 414.43q-51.286 0 -87.655 36.367q-36.368 36.366 -36.368 87.648q0 51.293 36.365 87.659
q36.365 36.365 87.658 36.365q51.283 0 87.645 -36.366q36.363 -36.366 36.363 -87.658q0 -51.286 -36.363 -87.651q-36.363 -36.364 -87.645 -36.364zM549.992 634.281q-39.633 0 -67.738 -28.102q-28.106 -28.102 -28.106 -67.734t28.103 -67.73
q28.102 -28.098 67.741 -28.098q39.633 0 67.731 28.098q28.097 28.097 28.097 67.73q0 39.634 -28.098 67.735q-28.098 28.101 -67.73 28.101z" />
    <glyph glyph-name="Racute" unicode="&#x154;" 
d="M417.852 38.2656q30.604 0 52.302 -21.6138q21.698 -21.6139 21.698 -52.1049q0 -30.4911 -21.698 -52.1049q-21.698 -21.614 -52.302 -21.614q-30.611 0 -52.314 21.614q-21.702 21.614 -21.702 52.1049q0 30.4909 21.702 52.1048q21.703 21.6139 52.314 21.6139z
M417.852 -75.6875q16.705 0 28.555 11.7999q11.851 11.7999 11.851 28.4345q0 16.6352 -11.848 28.4308q-11.848 11.7957 -28.558 11.7957q-16.711 0 -28.559 -11.7957q-11.848 -11.7956 -11.848 -28.4308q0 -16.636 11.849 -28.4352q11.848 -11.7992 28.558 -11.7992z
M727.117 38.2656q30.61 0 52.309 -21.6135q21.699 -21.6136 21.699 -52.1052q0 -30.4917 -21.699 -52.1052q-21.699 -21.6137 -52.309 -21.6137t-52.313 21.614q-21.702 21.614 -21.702 52.1049q0 30.4909 21.702 52.1048q21.703 21.6139 52.313 21.6139zM727.117 -75.6875
q16.709 0 28.554 11.7989q11.845 11.7988 11.845 28.4355q0 16.6359 -11.845 28.4312q-11.844 11.7953 -28.554 11.7953q-16.716 0 -28.565 -11.7954q-11.849 -11.7954 -11.849 -28.4311q0 -16.6366 11.85 -28.4355q11.849 -11.7989 28.564 -11.7989zM538.07 162.289
q0 -18.867 -19.078 -18.867q-8.923 0 -14.454 5.10201q-5.53 5.101 -5.53 13.765v125q0 17.719 19.984 17.719q19.078 0 19.078 -17.719v-125zM678.695 162.289q0 -18.867 -19.148 -18.867q-8.91101 0 -14.413 5.099q-5.50098 5.099 -5.50098 13.768v125
q0 17.719 19.914 17.719q19.148 0 19.148 -17.719v-125zM608.383 162.289q0 -18.867 -19.094 -18.867q-8.91699 0 -14.443 5.10201q-5.526 5.101 -5.526 13.765v125q0 17.719 19.969 17.719q19.094 0 19.094 -17.719v-125zM749.008 162.289q0 -18.867 -19.399 -18.867
q-19.664 0 -19.664 18.867v125q0 17.719 19.664 17.719q19.399 0 19.399 -17.719v-125zM870.008 418.852q5.82703 -5.806 5.97101 -17.777q0.143005 -11.971 -3.276 -32.161l-39.812 -290.531q-3.047 -22.349 -11.245 -27.7193q-8.19702 -5.3704 -33.584 -5.5697h-453.124
q-1.707 0 -4.836 -0.0181007q-17.99 -0.104099 -23.392 4.6144q-5.40198 4.7184 -13.812 30.0755l-105.328 331.945q-0.643005 2.048 -0.174011 4.953q0.468002 2.905 -0.895996 3.42999h-101.562q-10.1285 0 -16.783 6.664q-6.6545 6.66299 -6.6545 16.773
q0 10.115 6.6538 16.776q6.6538 6.66199 16.7837 6.66199h101.562q16.249 0 19.82 -3.65698q10.71 -6.991 14.164 -16.148q13.062 -34.503 35.305 -104.219l4.453 -13.929l20.867 -65.633l1.72699 -5.42999l52.797 -163.25q2.66602 -7.8831 22.75 -10.539h414.062
q14.856 0 17.18 8.9297l38.008 282.429q1.50903 10.968 -0.5 13.329h-7.81299h-460.937q-24.672 0 -24.672 18.406q0 8.716 6.854 14.686t17.818 5.97h62.5l-17.422 26.453l25.234 28.235v164.062h117.188v-54.687l27.195 26.859l43.117 -42.484h179.688v-148.438h46.875
q18.135 0 27.25 -9.06201zM467.766 615.414v-93.75l46.875 39.063v54.687h-46.875zM663.07 427.914l18.485 24.328l-107.047 109.531l-109.86 -105.32l26.547 -28.539h171.875zM756.82 427.914v101.563h-93.75l81.516 -76.938l-26.828 -24.625h39.062zM467.766 162.289
q0 -18.867 -18.485 -18.867q-8.99002 0 -14.784 5.129q-5.79401 5.129 -5.79401 13.738v125q0 17.719 20.578 17.719q18.485 0 18.485 -17.719v-125zM397.453 162.289q0 -18.867 -16.594 -18.867q-6.103 0 -10.379 5.185q-4.27701 5.18501 -4.27701 13.682v125
q0 17.305 14.656 17.719q16.594 0 16.594 -17.719v-125z" />
    <glyph glyph-name="thorn" unicode="&#xfe;" 
d="M847.875 96.9688q16.217 -12.246 15.423 -32.1426q-0.793945 -19.8966 -15.415 -34.3574l-67.274 -66.5q-45.704 -45.1853 -134.547 0q-16.659 9.2572 -44.823 26.4087q-28.163 17.1515 -101.236 71.4872q-73.073 54.3363 -129.573 110.19
q-53.15 52.538 -106.171 121.048q-53.022 68.509 -79.468 110.75l-26.447 42.241q-10.213 27.759 -13.758 39.185t-7.01399 31.753q-3.46901 20.328 1.989 34.609q5.45799 14.282 18.783 27.453l67.265 66.508q13.934 13.769 33.637 13.769t33.637 -13.769l100.906 -133
q27.156 -39.661 0 -66.508l-41.18 -40.696q54 -71.727 108.446 -125.554q61.222 -60.515 145.218 -122.461l39.789 39.328q27.156 26.855 67.274 0zM792.828 42.5625q17.002 28.1312 0 42.3047l-85.617 63.4768q-25.516 17.083 -42.805 0l-52.75 -52.1409
q-220.608 153.497 -320.828 314.602l54.031 53.422q17.283 17.076 0 42.312l-64.218 84.633q-9.59698 10.996 -21.397 10.245q-11.8 -0.750977 -21.408 -10.245l-42.805 -42.313q-11.496 -13.88 -11.155 -34.055q0.340988 -20.176 8.09299 -35.468
q29.462 -55.484 87.613 -131.906q58.151 -76.423 114.207 -134.086q37.847 -40.58 109.324 -94.611q71.476 -54.0316 124.029 -87.7729l52.553 -33.7414q11.23 -6.42612 36.544 -5.88867q25.315 0.53745 33.784 8.91211z" />
  </font>
</defs>
</svg>
