<?xml version="1.0" encoding="utf-8"?>
<!-- Generator: Adobe Illustrator 16.0.0, SVG Export Plug-In . SVG Version: 6.00 Build 0)  -->
<!DOCTYPE svg PUBLIC "-//W3C//DTD SVG 1.1//EN" "http://www.w3.org/Graphics/SVG/1.1/DTD/svg11.dtd">
<svg version="1.1" xmlns="http://www.w3.org/2000/svg" xmlns:xlink="http://www.w3.org/1999/xlink" x="0px" y="0px" width="50px"
	 height="50px" viewBox="0 0 50 50" enable-background="new 0 0 50 50" xml:space="preserve">
<g id="bg" display="none">
	<rect x="15" y="15" display="inline" width="20" height="20"/>
</g>
<g id="buyCar" display="none">
	<path display="inline" fill="#FFFFFF" d="M29.078,30.535c0.73,0,1.323,0.572,1.323,1.301c0,0.732-0.593,1.32-1.323,1.32
		c-0.733,0-1.326-0.588-1.326-1.32C27.751,31.107,28.345,30.535,29.078,30.535z M21.868,30.535c0.729,0,1.323,0.553,1.323,1.281
		s-0.594,1.32-1.323,1.32c-0.73,0-1.284-0.592-1.284-1.32S21.138,30.535,21.868,30.535z M32.336,24.034
		c0-0.357-0.293-0.65-0.651-0.65h-0.651c-0.361,0-0.652,0.292-0.652,0.65v0.65c0,0.361,0.291,0.65,0.652,0.65h0.651
		c0.358,0,0.651-0.29,0.651-0.65V24.034z M32.336,21.434c0-0.357-0.293-0.65-0.651-0.65h-0.651c-0.361,0-0.652,0.293-0.652,0.65
		v0.65c0,0.361,0.291,0.65,0.652,0.65h0.651c0.358,0,0.651-0.29,0.651-0.65V21.434z M29.729,24.034c0-0.357-0.293-0.65-0.651-0.65
		h-0.651c-0.362,0-0.652,0.292-0.652,0.65v0.65c0,0.361,0.291,0.65,0.652,0.65h0.651c0.358,0,0.651-0.29,0.651-0.65V24.034z
		 M29.729,21.434c0-0.357-0.293-0.65-0.651-0.65h-0.651c-0.362,0-0.652,0.293-0.652,0.65v0.65c0,0.361,0.291,0.65,0.652,0.65h0.651
		c0.358,0,0.651-0.29,0.651-0.65V21.434z M27.123,24.034c0-0.357-0.293-0.65-0.651-0.65H25.82c-0.361,0-0.652,0.292-0.652,0.65v0.65
		c0,0.361,0.291,0.65,0.652,0.65h0.651c0.358,0,0.651-0.29,0.651-0.65V24.034z M27.123,21.434c0-0.357-0.293-0.65-0.651-0.65H25.82
		c-0.361,0-0.652,0.293-0.652,0.65v0.65c0,0.361,0.291,0.65,0.652,0.65h0.651c0.358,0,0.651-0.29,0.651-0.65V21.434z M24.516,24.034
		c0-0.357-0.293-0.65-0.652-0.65h-0.651c-0.361,0-0.652,0.292-0.652,0.65v0.65c0,0.361,0.291,0.65,0.652,0.65h0.651
		c0.359,0,0.652-0.29,0.652-0.65V24.034z M24.516,21.434c0-0.357-0.293-0.65-0.652-0.65h-0.651c-0.361,0-0.652,0.293-0.652,0.65
		v0.65c0,0.361,0.291,0.65,0.652,0.65h0.651c0.359,0,0.652-0.29,0.652-0.65V21.434z M21.91,24.034c0-0.357-0.293-0.65-0.652-0.65
		h-0.022c-0.358,0-0.652,0.292-0.652,0.65v0.65c0,0.361,0.293,0.65,0.652,0.65h0.022c0.358,0,0.652-0.29,0.652-0.65V24.034z
		 M21.91,21.434c0-0.357-0.293-0.65-0.652-0.65h-0.652c-0.361,0-0.651,0.293-0.651,0.65v0.65c0,0.361,0.29,0.65,0.651,0.65h0.652
		c0.358,0,0.652-0.29,0.652-0.65V21.434z M32.369,26.59l-11.763,0.049l0.326,1.297h11.404c0.359,0,0.651,0.617,0.651,0.975
		c0,0.361-0.292,0.977-0.651,0.977H20.033c-0.358,0-0.649-0.939-0.649-1.301c0-0.287-1.668-9.791-1.668-9.791h-1.362
		c0-1.951,1.623-1.951,1.623-1.951c1.345,0,1.625,1.979,1.625,1.979l0.274,0.667l12.505-0.017c1.183,0,1.248,1.359,1.248,1.359
		l0.016,4.512C33.646,26.602,32.369,26.59,32.369,26.59z"/>
</g>
<g id="search" display="none">
	<path display="inline" fill="#FFFFFF" d="M27.271,22.162c0-2.372-1.922-4.298-4.294-4.298c-2.367,0-4.29,1.927-4.29,4.298
		c0,2.378,1.922,4.304,4.29,4.304C25.349,26.466,27.271,24.54,27.271,22.162z M33.579,32.781l-0.399,0.406
		c-0.45,0.445-1.175,0.445-1.62,0l-3.239-3.246c-0.371-0.378-0.417-0.938-0.159-1.378l-1.769-1.771
		c-0.953,0.708-2.127,1.131-3.405,1.131c-3.16,0-5.721-2.566-5.721-5.732c0-3.167,2.561-5.733,5.721-5.733s5.721,2.566,5.721,5.733
		c0,1.475-0.559,2.812-1.472,3.829l1.734,1.732c0.438-0.252,0.999-0.212,1.375,0.165l3.233,3.241
		C34.029,31.604,34.029,32.33,33.579,32.781z"/>
</g>
<g id="refresh" display="none">
	<path display="inline" fill="#FFFFFF" d="M25.172,17.325c-4.474,0-8.342,3.624-8.342,8.099c0,4.473,3.869,8.019,8.342,8.019
		c3.187,0,5.945-1.761,7.267-4.437c0.532-1.082-1.665-1.546-2.166-0.616c-1.027,1.844-2.941,2.481-5.101,2.481
		c-3.257,0-5.809-2.353-5.809-5.447c0-3.204,2.604-5.556,5.809-5.556c2.636,0,2.681,0.708,2.751,0.637
		c-0.686,0.698-2.258,2.336-2.258,2.336c-0.935,0.933,0.122,0.921,0.122,0.921l6.844,0.003c0.687,0.109,0.521-0.509,0.521-0.509
		l0.014-6.971c-0.014-0.969-0.95-0.022-0.95-0.022l-2.349,2.339C29.868,18.603,28.378,17.27,25.172,17.325z"/>
</g>
<g id="buyer" display="none">
	<g id="Shape_29_副本_2_xA0_剪贴路径" display="inline">
		<g>
			<path fill="#FFFFFF" d="M28.771,29.754c-0.628,0-1.137,0.522-1.137,1.168c0,0.645,0.509,1.168,1.137,1.168
				c0.627,0,1.136-0.523,1.136-1.168C29.906,30.276,29.397,29.754,28.771,29.754z M23.58,29.733c-0.633,0-1.146,0.528-1.146,1.178
				c0,0.65,0.513,1.178,1.146,1.178c0.633,0,1.146-0.527,1.146-1.178C24.727,30.262,24.213,29.733,23.58,29.733z M20.664,20.304
				l1.495,6.449h9.612l2.35-6.449H20.664z M19.25,19.417l-3.371-0.002l0.299,1.111h2.136l2.136,8.672h10.467l0.428-1.334h-10.04
				L19.25,19.417z"/>
		</g>
	</g>
</g>
<g id="payer" display="none">
	<g id="Shape_467_副本_2_xA0_剪贴路径" display="inline">
		<g>
			<path fill="#FFFFFF" d="M30.605,18.05l-1.206,1.304l0.005,0.01l-3.492-0.662l-0.979,4.182l-4.202-0.779l-4.255,4.409
				c0,0-0.431,1.119-0.309,2.19c0.241,2.115,1.862,2.867,1.862,2.867c2.456-0.829,3.333-2.505,3.729-2.839l2.154-1.162l0.678,0.181
				l-0.107,0.659c0.119,0.663,0.818,0.885,1.398,0.242c0.14,0.506,0.857,0.708,1.271,0.192l0.077-0.6l0.308,0.025l1.416,0.243
				l0.453-2.111l4.831-5.153L30.605,18.05z M21.267,25.704c-0.276-1.317,0.66-1.521,2.275-1.101L21.267,25.704z M28.654,28.011
				l-4.237-0.631l0.017-0.077l1.91-1.003c0.854-0.698,0.219-1.847-0.842-1.711l-0.51,0.249l1.308-5.584l4.035,0.769L28.654,28.011z
				 M30.858,19.641l-0.984-0.188l0.717-0.799l2.957,2.614l-3.967,4.322L30.858,19.641z"/>
		</g>
	</g>
</g>
<g id="msg" display="none">
	<g id="speech_bubble_4_副本_2_xA0_剪贴路径" display="inline">
		<g>
			<path fill="#FFFFFF" d="M16.75,18.233v10.333h4l0,3.457l4.003-3.457h8.496V18.233H16.75z M20.935,24.617
				c-0.517,0-0.935-0.411-0.935-0.917c0-0.506,0.418-0.917,0.935-0.917c0.517,0,0.936,0.41,0.936,0.917
				C21.871,24.207,21.452,24.617,20.935,24.617z M24.995,24.617c-0.517,0-0.936-0.411-0.936-0.917c0-0.506,0.418-0.917,0.936-0.917
				c0.517,0,0.936,0.41,0.936,0.917C25.931,24.207,25.512,24.617,24.995,24.617z M29.055,24.617c-0.517,0-0.936-0.411-0.936-0.917
				c0-0.506,0.419-0.917,0.936-0.917c0.518,0,0.936,0.41,0.936,0.917C29.99,24.207,29.572,24.617,29.055,24.617z"/>
		</g>
	</g>
</g>
<g id="edit" display="none">
	<path display="inline" fill="#FFFFFF" d="M18.066,33.139l-1.899,0.695l0.689-1.906L18.066,33.139z M18.228,28.025l3.745,3.746
		l-3.285,1.162l-1.627-1.625L18.228,28.025z M29.54,16.533c0.491-0.484,1.273-0.49,1.751-0.006l2.186,2.178
		c0.478,0.478,0.478,1.266-0.012,1.75l-1.347,1.346l-3.925-3.921L29.54,16.533z M29.932,22.235l-0.435-0.434l-7.439,7.439
		l0.435,0.428L29.932,22.235z M29.062,21.373l-0.428-0.435l-7.444,7.435l0.435,0.434L29.062,21.373z M28.199,20.504l-0.435-0.434
		l-7.438,7.434l0.434,0.436L28.199,20.504z M18.532,27.516l9.238-9.239l3.955,3.953l-9.238,9.239L18.532,27.516z"/>
</g>
<g id="heart" display="none">
	<path display="inline" fill="#FFFFFF" d="M28.125,28.09h1.25v1.236h1.25V28.09h1.25v-1.234h-1.25v-1.229h-1.25v1.229h-1.25V28.09z
		 M30,23.775c2.07,0,3.75,1.656,3.75,3.697c0,2.043-1.68,3.699-3.75,3.699c-2.068,0-3.75-1.656-3.75-3.699
		C26.25,25.431,27.932,23.775,30,23.775z M30,23.164c-2.419,0-4.375,1.932-4.375,4.308c0,1.358,0.638,2.568,1.631,3.356
		C25.968,31.764,25,32.351,25,32.351s-8.75-5.287-8.75-9.547c0-2.568,1.613-5.135,4.688-5.135c2.813,0,4.063,2.622,4.063,2.622
		s1.094-2.622,4.063-2.622s4.638,2.512,4.638,5.135c0,0.586-0.175,1.185-0.449,1.791C32.45,23.714,31.294,23.164,30,23.164z"/>
</g>
<g id="true" display="none">
	<path display="inline" fill="#FFFFFF" d="M33.62,21.195l-9.79,9.848c-0.244,0.246-0.644,0.246-0.888,0l-0.193-0.201l-0.22-0.215
		l-0.918-0.924l-0.013-0.025l-4.235-4.286c-0.25-0.251-0.25-0.647,0-0.899l1.333-1.341c0.244-0.245,0.644-0.245,0.888,0l3.809,3.857
		l8.006-8.047c0.243-0.252,0.644-0.252,0.888,0l1.333,1.34C33.869,20.547,33.869,20.95,33.62,21.195z"/>
</g>
<g id="reset" display="none">
	<g id="Shape_258_副本_2_xA0_剪贴路径" display="inline">
		<g>
			<path fill="#FFFFFF" d="M19.248,22.83c0-0.891,1.14-1.308,1.14-1.308h8.698v2.629l4.229-4.03l-4.229-4.029v2.629h-9.697
				c0,0-2.565,0.299-2.565,2.943c0,0.055,0,3.621,0,3.621h2.426C19.248,25.286,19.248,23.721,19.248,22.83z M30.866,27.38
				c0,0.863-1.148,1.268-1.148,1.268h-8.767v-2.547l-4.264,3.902l4.264,3.904V31.36h9.775c0,0,2.587-0.29,2.587-2.852
				c0-0.055,0-3.509,0-3.509h-2.447C30.866,25,30.866,26.518,30.866,27.38z"/>
		</g>
	</g>
</g>
<g id="bills" display="none">
	<g id="Shape_245_拷贝_副本_2_xA0_剪贴路径" display="inline">
		<g>
			<path fill="#FFFFFF" d="M25.295,19.979c0.452,0,0.818-0.354,0.818-0.791V16.98c0-0.437-0.367-0.79-0.818-0.79
				s-0.818,0.354-0.818,0.79v2.208C24.477,19.626,24.843,19.979,25.295,19.979z M30.312,19.979c0.452,0,0.817-0.354,0.817-0.791
				V16.98c0-0.437-0.365-0.79-0.817-0.79s-0.819,0.354-0.819,0.79v2.208C29.492,19.626,29.859,19.979,30.312,19.979z M33.2,17.072
				h-1.491v1.151c0.155,0.241,0.246,0.526,0.246,0.832c0,0.877-0.736,1.587-1.644,1.587c-0.909,0-1.646-0.711-1.646-1.587
				c0-0.306,0.091-0.59,0.246-0.832v-1.151h-2.218v1.151c0.154,0.241,0.246,0.526,0.246,0.832c0,0.877-0.737,1.587-1.646,1.587
				c-0.908,0-1.644-0.711-1.644-1.587c0-0.306,0.09-0.59,0.245-0.832v-1.151h-2.218v1.151c0.155,0.241,0.245,0.526,0.245,0.832
				c0,0.877-0.736,1.587-1.644,1.587c-0.908,0-1.645-0.711-1.645-1.587c0-0.306,0.091-0.59,0.246-0.832v-1.151h-1.525l-0.051,16.737
				h15.947L33.2,17.072z M32.188,32.268H18.368V21.632h13.821V32.268z M21.609,25.975l-0.015,1.527l2.771,0.006v0.752h-2.771v1.504
				h2.769v1.757h1.524v-1.768h2.745V28.26h-2.748v-0.756h2.754v-1.544l-1.873,0.019l2.059-3.011h-1.925l-1.135,2.178
				c-0.25,0.461-0.227,0.477-0.426,0.822L24.9,25.969l-1.485-3.002h-1.968l2.066,3.029L21.609,25.975z M20.279,19.979
				c0.452,0,0.819-0.354,0.819-0.791V16.98c0-0.437-0.367-0.79-0.819-0.79c-0.452,0-0.818,0.354-0.818,0.79v2.208
				C19.461,19.626,19.828,19.979,20.279,19.979z"/>
		</g>
	</g>
</g>
<g id="bank" display="none">
	<path display="inline" fill="#FFFFFF" d="M16.207,19.237c0-0.313,0.256-0.57,0.569-0.57h16.5c0.313,0,0.57,0.257,0.57,0.57v2.851
		h-17.64V19.237z M30.127,25.519l0.048-2.021l-1.211,2.021H30.127z M28.183,27.203h-1.057l2.732-4.524l1.146-0.035l-0.015,4.543
		h-0.849l0.005-0.833h-1.473L28.183,27.203z M25.157,27.192c-1.136,0-1.489-0.521-1.489-0.521l0.407-0.573
		c0,0,0.293,0.327,1.147,0.483c0.451,0,0.86-0.396,0.86-0.396s0.42-0.567-1.295-1.72c0.003,0.006,0.003,0.009,0.003,0.011
		c-0.023,0.015-0.684-0.821,0.279-1.465c0.248-0.25,1.095-0.374,1.567-0.374c0.479,0,1.347,0.299,1.347,0.299l-0.672,0.824
		c0,0-0.225-0.279-0.604-0.279c-0.892,0-1.161,0.1-1.161,0.471c0.02,0.394,0.911,0.585,1.227,0.927
		c0.191,0.206,0.394,0.519,0.394,0.93c0,0.396-0.339,0.929-0.624,1.211C26.258,27.301,25.665,27.192,25.157,27.192z M21.7,27.203
		l1.424-4.542h1.051l-1.421,4.542H21.7z M19.295,27.203c0,0-0.411-2.625-0.615-3.848c-0.008-0.057-0.934-0.319-0.934-0.319
		l-0.091-0.391l2.031,0.018l0.516,3.006l1.53-3.006h0.707l-2.248,4.542L19.295,27.203L19.295,27.203z M33.276,31.213h-16.5
		c-0.313,0-0.569-0.257-0.569-0.57v-2.852h17.64v2.852C33.847,30.956,33.59,31.213,33.276,31.213z"/>
</g>
<g id="balance" display="none">
	<path display="inline" fill="#FFFFFF" d="M24.723,30.253h8.349c0.355,0,0.646,0.297,0.646,0.658c0,0.362-0.291,0.658-0.646,0.658
		h-9.879C23.787,31.234,24.302,30.787,24.723,30.253z M22.404,27.462c-0.065-0.158-0.149-0.295-0.258-0.408
		c-0.104-0.118-0.22-0.217-0.356-0.303c-0.135-0.086-0.271-0.158-0.412-0.224l-0.414-0.184c-0.129-0.06-0.252-0.126-0.362-0.192
		c-0.104-0.065-0.187-0.144-0.251-0.229c-0.064-0.086-0.097-0.191-0.097-0.31c0-0.079,0.02-0.151,0.045-0.224
		c0.025-0.072,0.071-0.131,0.128-0.184c0.058-0.047,0.129-0.086,0.213-0.118c0.091-0.027,0.188-0.041,0.304-0.041
		c0.148,0,0.283,0.02,0.406,0.053c0.123,0.039,0.233,0.079,0.33,0.125c0.09,0.046,0.174,0.086,0.239,0.125
		c0.064,0.04,0.11,0.053,0.142,0.053c0.026,0,0.051-0.006,0.071-0.02c0.013-0.019,0.025-0.046,0.038-0.079
		c0.006-0.04,0.013-0.085,0.02-0.138l0.006-0.204l-0.006-0.178l-0.013-0.119l-0.026-0.079c-0.006-0.014-0.026-0.04-0.052-0.066
		c-0.025-0.026-0.083-0.059-0.168-0.105c-0.083-0.04-0.174-0.072-0.283-0.105c-0.11-0.033-0.227-0.06-0.35-0.08l-0.077-0.006v-0.678
		h-0.633v0.678c-0.116,0.013-0.232,0.04-0.342,0.072c-0.213,0.06-0.395,0.158-0.556,0.283c-0.155,0.132-0.277,0.29-0.374,0.48
		c-0.09,0.198-0.135,0.421-0.135,0.671c0,0.225,0.032,0.416,0.097,0.573c0.064,0.158,0.148,0.297,0.251,0.415
		c0.104,0.119,0.22,0.218,0.349,0.303c0.135,0.079,0.271,0.158,0.406,0.224l0.407,0.185c0.135,0.06,0.252,0.125,0.355,0.19
		c0.103,0.066,0.187,0.146,0.251,0.23c0.065,0.086,0.097,0.191,0.097,0.31c0,0.105-0.019,0.197-0.059,0.283
		c-0.033,0.086-0.09,0.158-0.161,0.217c-0.071,0.053-0.155,0.1-0.259,0.132c-0.103,0.033-0.219,0.046-0.348,0.046
		c-0.194,0-0.369-0.02-0.517-0.065c-0.149-0.047-0.278-0.093-0.388-0.152c-0.109-0.052-0.194-0.105-0.265-0.15
		c-0.064-0.039-0.122-0.066-0.155-0.066c-0.032,0-0.052,0.008-0.07,0.026c-0.026,0.013-0.039,0.04-0.052,0.072
		c-0.013,0.04-0.02,0.086-0.026,0.138l-0.006,0.219c0,0.125,0.006,0.224,0.02,0.289c0.013,0.066,0.038,0.118,0.078,0.158
		c0.032,0.033,0.091,0.072,0.167,0.119c0.084,0.046,0.181,0.092,0.298,0.131c0.122,0.046,0.258,0.08,0.413,0.112
		c0.155,0.026,0.323,0.039,0.497,0.039h0.026v0.632h0.633V29.62l0.096-0.02c0.233-0.072,0.439-0.177,0.613-0.316
		c0.174-0.144,0.31-0.315,0.414-0.525c0.103-0.218,0.154-0.462,0.154-0.738C22.501,27.804,22.469,27.62,22.404,27.462z
		 M25.322,26.962c0,2.548-2.021,4.608-4.519,4.608c-2.499,0-4.52-2.061-4.52-4.608s2.021-4.608,4.52-4.608
		C23.302,22.354,25.322,24.414,25.322,26.962z M33.071,19.721H22.74c-0.355,0-0.646-0.296-0.646-0.658s0.291-0.658,0.646-0.658
		h10.331c0.355,0,0.646,0.296,0.646,0.658C33.718,19.424,33.427,19.721,33.071,19.721z M33.071,21.695H22.74
		c-0.355,0-0.646-0.296-0.646-0.658c0-0.362,0.291-0.659,0.646-0.659h10.331c0.355,0,0.646,0.296,0.646,0.659
		C33.718,21.399,33.427,21.695,33.071,21.695z M33.071,23.67h-8.349c-0.42-0.534-0.937-0.981-1.531-1.316h9.879
		c0.355,0,0.646,0.296,0.646,0.658C33.718,23.374,33.427,23.67,33.071,23.67z M33.071,25.645h-7.38
		c-0.116-0.467-0.298-0.908-0.53-1.316h7.91c0.355,0,0.646,0.297,0.646,0.658C33.718,25.349,33.427,25.645,33.071,25.645z
		 M33.071,27.62h-7.258c0.033-0.218,0.045-0.436,0.045-0.658c0-0.224-0.012-0.441-0.045-0.658h7.258
		c0.355,0,0.646,0.296,0.646,0.658C33.718,27.323,33.427,27.62,33.071,27.62z M33.071,29.595h-7.91
		c0.232-0.408,0.414-0.85,0.53-1.317h7.38c0.355,0,0.646,0.297,0.646,0.658C33.718,29.299,33.427,29.595,33.071,29.595z"/>
</g>
<g id="more" display="none">
	<g display="inline">
		<path fill-rule="evenodd" clip-rule="evenodd" fill="#FFFFFF" d="M18.668,23.733c0.7,0,1.267,0.567,1.267,1.267
			c0,0.699-0.567,1.266-1.267,1.266S17.402,25.699,17.402,25C17.402,24.3,17.969,23.733,18.668,23.733z"/>
		<path fill-rule="evenodd" clip-rule="evenodd" fill="#FFFFFF" d="M22.89,23.733c0.7,0,1.267,0.567,1.267,1.267
			c0,0.699-0.567,1.266-1.267,1.266S21.624,25.699,21.624,25C21.624,24.3,22.19,23.733,22.89,23.733z"/>
		<path fill-rule="evenodd" clip-rule="evenodd" fill="#FFFFFF" d="M27.111,23.733c0.699,0,1.266,0.567,1.266,1.267
			c0,0.699-0.566,1.266-1.266,1.266c-0.7,0-1.267-0.566-1.267-1.266C25.845,24.3,26.411,23.733,27.111,23.733z"/>
		<path fill-rule="evenodd" clip-rule="evenodd" fill="#FFFFFF" d="M31.331,23.733c0.7,0,1.268,0.567,1.268,1.267
			c0,0.699-0.567,1.266-1.268,1.266c-0.699,0-1.266-0.566-1.266-1.266C30.065,24.3,30.632,23.733,31.331,23.733z"/>
	</g>
</g>
<g id="note" display="none">
	<g id="Shape_245_副本_2_xA0_剪贴路径" display="inline">
		<g>
			<path fill="#FFFFFF" d="M19.77,19.648c0.488,0,0.884-0.374,0.884-0.836v-2.338c0-0.462-0.396-0.836-0.884-0.836
				c-0.488,0-0.884,0.375-0.884,0.836v2.338C18.886,19.274,19.282,19.648,19.77,19.648z M25.186,19.648
				c0.488,0,0.884-0.374,0.884-0.836v-2.338c0-0.462-0.396-0.836-0.884-0.836c-0.488,0-0.883,0.375-0.883,0.836v2.338
				C24.302,19.274,24.698,19.648,25.186,19.648z M30.602,19.648c0.488,0,0.884-0.374,0.884-0.836v-2.338
				c0-0.462-0.396-0.836-0.884-0.836s-0.884,0.375-0.884,0.836v2.338C29.718,19.274,30.113,19.648,30.602,19.648z M30.907,28.953
				h-11.48v1.631h11.48V28.953z M33.721,16.57h-1.609v1.218c0.167,0.257,0.266,0.558,0.266,0.88c0,0.929-0.795,1.681-1.775,1.681
				s-1.776-0.752-1.776-1.681c0-0.323,0.099-0.624,0.266-0.88V16.57h-2.395v1.218c0.168,0.257,0.265,0.558,0.265,0.88
				c0,0.929-0.795,1.681-1.775,1.681s-1.775-0.752-1.775-1.681c0-0.323,0.098-0.624,0.265-0.88V16.57h-2.394v1.218
				c0.167,0.257,0.265,0.558,0.265,0.88c0,0.929-0.795,1.681-1.776,1.681c-0.98,0-1.775-0.752-1.775-1.681
				c0-0.323,0.098-0.624,0.265-0.88V16.57h-1.646l-0.056,17.716h17.219L33.721,16.57z M32.629,32.656H17.706V21.397h14.923V32.656z
				 M30.907,23.518h-11.48v1.631h11.48V23.518z M30.907,26.236h-11.48v1.63h11.48V26.236z"/>
		</g>
	</g>
</g>
<g id="nav" display="none">
	<path display="inline" fill-rule="evenodd" clip-rule="evenodd" fill="#FFFFFF" d="M16.25,28.75C15.56,28.75,15,29.311,15,30v1.25
		c0,0.689,0.56,1.25,1.25,1.25h17.501c0.689,0,1.248-0.561,1.248-1.25V30c0-0.689-0.559-1.25-1.248-1.25H16.25z M16.25,23.125
		c-0.69,0-1.25,0.56-1.25,1.25v1.25c0,0.691,0.56,1.252,1.25,1.252h17.501c0.689,0,1.248-0.561,1.248-1.252v-1.25
		c0-0.69-0.559-1.25-1.248-1.25H16.25z M16.25,17.5c-0.69,0-1.25,0.56-1.25,1.25V20c0,0.69,0.56,1.25,1.25,1.25h17.501
		C34.441,21.25,35,20.691,35,20v-1.25c0-0.69-0.559-1.25-1.248-1.25H16.25z"/>
</g>
<g id="set" display="none">
	<g display="inline">
		<path fill-rule="evenodd" clip-rule="evenodd" fill="#FFFFFF" d="M20.639,25.042c0-2.386,1.934-4.32,4.32-4.32
			c2.385,0,4.32,1.934,4.32,4.32c0,2.385-1.935,4.32-4.32,4.32C22.572,29.361,20.639,27.427,20.639,25.042z M16.318,23.19
			c-0.682,0-1.234,0.553-1.234,1.234v1.234c0,0.681,0.552,1.234,1.234,1.234h1.75c0.162,0.607,0.403,1.182,0.71,1.713l-1.239,1.236
			c-0.482,0.481-0.482,1.264,0,1.746l0.873,0.872c0.482,0.482,1.263,0.482,1.745,0l1.238-1.238c0.531,0.307,1.105,0.547,1.711,0.71
			v1.75c0,0.682,0.552,1.234,1.234,1.234h1.234c0.682,0,1.234-0.553,1.234-1.234v-1.753c0.604-0.162,1.18-0.4,1.709-0.707
			l1.24,1.238c0.481,0.482,1.264,0.482,1.746,0l0.872-0.872c0.482-0.482,0.482-1.265,0-1.746l-1.238-1.24
			c0.306-0.529,0.545-1.104,0.707-1.709h1.753c0.682,0,1.234-0.553,1.234-1.234v-1.234c0-0.682-0.553-1.234-1.234-1.234h-1.751
			c-0.162-0.606-0.402-1.181-0.709-1.711l1.238-1.237c0.481-0.482,0.481-1.264,0-1.746l-0.873-0.873
			c-0.481-0.482-1.264-0.482-1.745,0l-1.236,1.239c-0.531-0.307-1.107-0.548-1.713-0.71v-1.75c0-0.682-0.553-1.234-1.234-1.234
			h-1.234c-0.682,0-1.234,0.553-1.234,1.234v1.752c-0.605,0.163-1.178,0.402-1.709,0.708l-1.24-1.239
			c-0.482-0.482-1.264-0.482-1.746,0l-0.873,0.873c-0.482,0.482-0.482,1.264,0,1.746l1.239,1.24
			c-0.306,0.531-0.545,1.104-0.708,1.709H16.318z M23.107,25.042c0,1.023,0.829,1.851,1.852,1.851s1.851-0.828,1.851-1.851
			c0-1.022-0.828-1.852-1.851-1.852S23.107,24.019,23.107,25.042z"/>
	</g>
</g>
<g id="next" display="none">
	<g display="inline">
		<path fill-rule="evenodd" clip-rule="evenodd" fill="#FFFFFF" d="M25.373,24.604c0.377,0.752-1.354,2.355-1.354,2.355
			l-4.559,4.521c-0.791,0.782-0.791,2.05,0,2.831c0.792,0.782,2.075,0.782,2.867,0l7.883-7.785l0.055-0.056
			c0.4-0.365,0.651-0.89,0.651-1.471s-0.251-1.106-0.651-1.472l-0.055-0.055l-7.883-7.785c-0.792-0.782-2.076-0.782-2.867,0
			c-0.791,0.782-0.791,2.049,0,2.831l4.456,4.501C23.915,23.021,24.997,23.851,25.373,24.604z"/>
	</g>
	<g display="inline">
		<path fill-rule="evenodd" clip-rule="evenodd" fill="#FFFFFF" d="M25.373,24.604c0.377,0.752-1.354,2.355-1.354,2.355
			l-4.559,4.521c-0.791,0.782-0.791,2.05,0,2.831c0.792,0.782,2.075,0.782,2.867,0l7.883-7.785l0.055-0.056
			c0.4-0.365,0.651-0.89,0.651-1.471s-0.251-1.106-0.651-1.472l-0.055-0.055l-7.883-7.785c-0.792-0.782-2.076-0.782-2.867,0
			c-0.791,0.782-0.791,2.049,0,2.831l4.456,4.501C23.915,23.021,24.997,23.851,25.373,24.604z"/>
	</g>
	<g display="inline">
		<path fill-rule="evenodd" clip-rule="evenodd" fill="#FFFFFF" d="M25.373,24.604c0.377,0.752-1.354,2.355-1.354,2.355
			l-4.559,4.521c-0.791,0.782-0.791,2.05,0,2.831c0.792,0.782,2.075,0.782,2.867,0l7.883-7.785l0.055-0.056
			c0.4-0.365,0.651-0.89,0.651-1.471s-0.251-1.106-0.651-1.472l-0.055-0.055l-7.883-7.785c-0.792-0.782-2.076-0.782-2.867,0
			c-0.791,0.782-0.791,2.049,0,2.831l4.456,4.501C23.915,23.021,24.997,23.851,25.373,24.604z"/>
	</g>
</g>
<g id="lab" display="none">
	<g display="inline">
		<path fill-rule="evenodd" clip-rule="evenodd" fill="#FFFFFF" d="M29.794,27.33l-5.865-5.864l0.419-0.419l5.865,5.866
			L29.794,27.33z M28.364,28.762l-5.865-5.866l0.419-0.419l5.864,5.865L28.364,28.762z M26.934,30.191l-5.865-5.865l0.419-0.419
			l5.865,5.864L26.934,30.191z M20.764,20.445c-0.579,0.579-1.516,0.579-2.095,0c-0.578-0.579-0.578-1.516,0-2.095
			c0.579-0.578,1.516-0.578,2.095,0C21.342,18.929,21.342,19.867,20.764,20.445z M17.913,15.817c-0.982,0-1.777,0.795-1.777,1.777
			v7.664l8.599,8.405c0.696,0.691,1.824,0.691,2.521,0l6.723-6.688c0.695-0.691,0.695-1.814,0-2.507l-8.911-8.644l-0.009-0.009
			l-0.008,0.009L17.913,15.817z"/>
	</g>
</g>
<g id="next_x5F_gr">
	<g>
		<path fill-rule="evenodd" clip-rule="evenodd" fill="#FFFFFF" d="M25.373,24.604c0.377,0.752-1.354,2.355-1.354,2.355
			l-4.559,4.521c-0.791,0.782-0.791,2.05,0,2.831c0.792,0.782,2.075,0.782,2.867,0l7.883-7.785l0.055-0.056
			c0.4-0.365,0.651-0.89,0.651-1.471s-0.251-1.106-0.651-1.472l-0.055-0.055l-7.883-7.785c-0.792-0.782-2.076-0.782-2.867,0
			c-0.791,0.782-0.791,2.049,0,2.831l4.456,4.501C23.915,23.021,24.997,23.851,25.373,24.604z"/>
	</g>
	<g>
		<path fill-rule="evenodd" clip-rule="evenodd" fill="#FFFFFF" d="M25.373,24.604c0.377,0.752-1.354,2.355-1.354,2.355
			l-4.559,4.521c-0.791,0.782-0.791,2.05,0,2.831c0.792,0.782,2.075,0.782,2.867,0l7.883-7.785l0.055-0.056
			c0.4-0.365,0.651-0.89,0.651-1.471s-0.251-1.106-0.651-1.472l-0.055-0.055l-7.883-7.785c-0.792-0.782-2.076-0.782-2.867,0
			c-0.791,0.782-0.791,2.049,0,2.831l4.456,4.501C23.915,23.021,24.997,23.851,25.373,24.604z"/>
	</g>
	<g>
		<path fill-rule="evenodd" clip-rule="evenodd" fill="#4D4D4D" d="M25.373,24.604c0.377,0.752-1.354,2.355-1.354,2.355
			l-4.559,4.521c-0.791,0.782-0.791,2.05,0,2.831c0.792,0.782,2.075,0.782,2.867,0l7.883-7.785l0.055-0.056
			c0.4-0.365,0.651-0.89,0.651-1.471s-0.251-1.106-0.651-1.472l-0.055-0.055l-7.883-7.785c-0.792-0.782-2.076-0.782-2.867,0
			c-0.791,0.782-0.791,2.049,0,2.831l4.456,4.501C23.915,23.021,24.997,23.851,25.373,24.604z"/>
	</g>
</g>
</svg>
