<?xml version="1.0" encoding="utf-8"?>
<!-- Generator: Adobe Illustrator 16.0.0, SVG Export Plug-In . SVG Version: 6.00 Build 0)  -->
<!DOCTYPE svg PUBLIC "-//W3C//DTD SVG 1.1//EN" "http://www.w3.org/Graphics/SVG/1.1/DTD/svg11.dtd">
<svg version="1.1" id="图层_1" xmlns="http://www.w3.org/2000/svg" xmlns:xlink="http://www.w3.org/1999/xlink" x="0px" y="0px"
	 width="128px" height="128px" viewBox="0 0 128 128" enable-background="new 0 0 128 128" xml:space="preserve">
<g transform="matrix(1 0 0 -1 0 800)">
	<path d="M85.12,738.304c0.597-0.683,0.896-1.451,0.896-2.304s-0.299-1.621-0.896-2.304l-37.504-35.841
		c-0.683-0.597-1.472-0.896-2.368-0.896s-1.664,0.32-2.304,0.96c-0.64,0.641-0.96,1.387-0.96,2.24s0.299,1.578,0.896,2.176
		L78.08,736l-35.2,33.664c-0.597,0.597-0.896,1.323-0.896,2.176c0,0.854,0.32,1.6,0.96,2.24c0.64,0.64,1.408,0.96,2.304,0.96
		s1.685-0.299,2.368-0.896L85.12,738.304z"/>
</g>
</svg>
